# xmcd
# 
# Track frame offsets:
#     150
#     11889
#     25080
#     36129
#     51499
#     67356
#     84626
#     97698
#     108479
#     121575
# 
# Disc length: 1756
# 
# Revision: 2
# Processed by: cddbd v1.5.2PL0 Copyright (c) Steve Scherf et al.
# Submitted via: fre:ac v1.0.17
# 
DISCID=7f06da0a
DTITLE=Crystal Gayle - Certified Hits (7243-5-34449-2-1)
DYEAR=1977
DGENRE=Country*
TTITLE0=Don't It Make My Brown Eyes Blue
TTITLE1=Why Have You Left The One You Left Me For
TTITLE2=Somebody Loves You
TTITLE3=When I Dream
TTITLE4=I'll Get Over You
TTITLE5=You Never Miss A Real Good Thing {'Til He Says Goodbye}
TTITLE6=Talking In Your Sleep
TTITLE7=Ready For The Times To Get Better
TTITLE8=I'll Do It All Over Again
TTITLE9=Wrong Road Again
EXTD=
EXTT0=
EXTT1=
EXTT2=
EXTT3=
EXTT4=
EXTT5=
EXTT6=
EXTT7=
EXTT8=
EXTT9=
PLAYORDER=
